<?xml version="1.0" standalone="no"?>
<!DOCTYPE svg PUBLIC "-//W3C//DTD SVG 20010904//EN"
 "http://www.w3.org/TR/2001/REC-SVG-20010904/DTD/svg10.dtd">
<svg version="1.0" xmlns="http://www.w3.org/2000/svg"
 width="1024.000000pt" height="1024.000000pt" viewBox="0 0 1024.000000 1024.000000"
 preserveAspectRatio="xMidYMid meet">
<metadata>
Created by potrace 1.14, written by Peter Selinger 2001-2017
</metadata>
<g transform="translate(0.000000,1024.000000) scale(0.100000,-0.100000)"
fill="#000000" stroke="none">
<path d="M0 8648 l0 -1593 68 -45 c37 -24 69 -46 71 -47 2 -1 -2 -9 -9 -18 -7
-8 -16 -12 -22 -9 -5 3 -4 13 4 22 11 13 11 14 0 8 -8 -5 -29 6 -57 28 -24 20
-46 36 -49 36 -3 0 -6 -82 -6 -182 l1 -183 40 78 c21 42 41 77 44 77 5 0 -21
-62 -56 -132 l-29 -57 0 -595 c0 -466 3 -595 13 -599 9 -4 9 -6 0 -6 -10 -1
-13 -62 -13 -270 0 -206 3 -270 13 -274 9 -4 9 -7 0 -18 -10 -10 -13 -512 -13
-2441 l0 -2428 5120 0 5120 0 0 2290 0 2291 -31 -16 c-98 -51 -265 -149 -334
-197 -44 -30 -117 -77 -163 -103 -66 -38 -85 -46 -92 -35 -6 9 -13 11 -22 4
-8 -5 -5 -1 5 9 36 33 232 144 435 247 l202 103 0 2824 0 2823 -5120 0 -5120
0 0 -1592z m3880 1038 c0 -24 -101 -174 -159 -236 -18 -19 -83 -100 -144 -179
-148 -192 -179 -225 -239 -256 l-50 -26 33 46 c19 26 59 82 89 125 55 79 179
244 317 422 64 83 114 127 146 128 4 0 7 -11 7 -24z m84 -132 c25 -10 19 -44
-18 -104 -18 -30 -73 -122 -121 -203 -63 -109 -91 -147 -102 -143 -8 3 -17 6
-19 6 -13 0 0 53 27 105 100 194 193 345 213 345 2 0 11 -3 20 -6z m2620 -319
c30 -45 12 -82 -24 -50 -27 24 -35 55 -19 66 21 13 25 11 43 -16z m-2084 -90
c15 -18 7 -31 -29 -50 -24 -12 -31 -12 -47 -1 -17 13 -16 15 11 40 32 30 47
32 65 11z m-330 -450 c13 -16 6 -35 -15 -35 -12 0 -25 21 -25 41 0 14 26 11
40 -6z m204 9 c9 -3 16 -10 16 -15 0 -15 -47 -10 -60 6 -10 12 -9 15 8 15 11
0 27 -3 36 -6z m1554 -16 c-3 -25 -34 -36 -51 -19 -14 14 9 41 35 41 14 0 19
-6 16 -22z m2787 -63 c0 -22 -31 -33 -47 -17 -17 17 -1 44 24 40 15 -2 23 -10
23 -23z m86 -11 c11 -14 10 -18 -5 -30 -27 -20 -60 -1 -46 26 13 24 33 26 51
4z m-3864 -40 c5 -15 -20 -24 -37 -14 -7 4 -9 13 -5 19 8 14 37 11 42 -5z
m-587 -102 c0 -14 -11 -21 -26 -15 -21 8 -17 23 6 23 11 0 20 -4 20 -8z m-990
-52 c0 -11 -7 -20 -15 -20 -15 0 -21 21 -8 33 12 13 23 7 23 -13z m1886 -142
c13 -84 30 -173 39 -198 13 -41 13 -46 -2 -57 -26 -20 -31 -16 -42 38 -41 190
-54 405 -23 374 2 -2 15 -73 28 -157z m-1561 93 c0 -8 -8 -19 -17 -25 -14 -8
-21 -7 -34 6 -9 9 -13 21 -9 28 10 15 60 8 60 -9z m642 -27 c5 -15 -28 -27
-40 -15 -5 5 -6 14 -2 21 8 13 37 9 42 -6z m3076 -29 c89 -60 206 -169 195
-181 -8 -7 -143 92 -205 150 -61 58 -55 76 10 31z m-1859 7 c2 -4 1 -14 -3
-21 -11 -18 -45 -10 -49 12 -3 12 3 17 22 17 14 0 27 -4 30 -8z m-552 -44 c-9
-9 -15 -9 -24 0 -10 10 -10 15 2 22 20 12 38 -6 22 -22z m918 6 c0 -8 -8 -14
-18 -14 -25 0 -34 11 -21 26 13 15 39 7 39 -12z m-2015 -25 c-6 -9 -35 -1 -35
10 0 4 3 11 7 14 8 9 34 -13 28 -24z m897 -156 c5 -293 -2 -733 -12 -733 -6 0
-10 6 -10 13 0 8 -19 -3 -42 -25 -23 -21 -47 -38 -54 -38 -7 0 -14 -4 -16 -9
-1 -5 -37 -30 -78 -57 -41 -26 -76 -51 -78 -56 -2 -4 -10 -8 -18 -8 -9 0 -13
-4 -9 -9 3 -6 -15 -19 -40 -30 -25 -11 -45 -25 -45 -31 0 -6 -4 -8 -10 -5 -10
6 -53 -18 -46 -26 2 -2 -8 -5 -22 -6 -15 0 -28 -6 -30 -12 -2 -6 -10 -11 -18
-11 -8 0 -17 -7 -21 -16 -3 -9 -13 -14 -24 -11 -10 3 -17 0 -16 -7 1 -6 -6
-10 -15 -10 -10 1 -16 -2 -13 -6 6 -9 -40 -30 -67 -30 -12 0 -18 -3 -14 -7 3
-4 -8 -14 -26 -23 -18 -9 -60 -30 -93 -47 -62 -32 -165 -81 -269 -127 -57 -25
-84 -26 -69 -3 4 7 -5 4 -20 -5 -14 -10 -35 -18 -46 -18 -11 0 -21 -4 -23 -8
-1 -4 -43 -25 -93 -46 -109 -47 -294 -133 -315 -146 -8 -6 -49 -27 -90 -48
-98 -49 -130 -71 -131 -91 0 -9 -3 -11 -5 -5 -3 7 -13 10 -23 7 -16 -4 -19
-21 -26 -126 -4 -67 -10 -144 -14 -172 l-7 -50 -13 40 -13 41 -41 -42 c-57
-56 -268 -224 -283 -224 -5 0 -39 -30 -95 -82 -11 -10 -19 -14 -19 -8 0 5 -11
-2 -25 -16 -14 -14 -25 -29 -25 -34 0 -6 -4 -10 -8 -10 -8 0 -40 138 -77 330
-9 47 -19 92 -22 100 -8 21 -5 155 12 500 8 162 15 315 15 340 l0 46 228 109
c125 60 308 148 407 196 414 201 1083 522 1400 674 265 126 339 165 337 178
-2 13 5 17 35 17 21 1 54 9 73 20 60 33 59 35 62 -137z m692 108 c39 -21 154
-83 256 -136 102 -54 383 -202 625 -330 242 -128 499 -263 570 -300 518 -272
941 -499 946 -508 4 -5 10 -89 14 -186 3 -97 9 -183 11 -192 3 -9 14 -19 24
-22 26 -7 26 -27 0 -27 -24 0 -23 18 -7 -258 l12 -204 -57 -251 c-32 -139 -55
-262 -53 -273 3 -13 -1 -24 -9 -27 -9 -4 -16 -23 -18 -49 -2 -32 -8 -44 -22
-46 -10 -2 -16 0 -13 5 13 21 147 627 140 634 -7 7 -590 319 -596 319 -1 0 -2
-19 -1 -42 1 -45 -12 -114 -16 -88 -1 8 -2 19 -1 24 1 5 2 36 2 68 0 32 4 56
8 54 7 -5 5 70 -5 200 l-5 70 -72 37 c-40 20 -119 61 -177 92 -58 31 -215 115
-350 187 -135 72 -272 145 -305 163 -33 18 -184 99 -335 180 -151 81 -302 162
-335 180 -148 80 -315 166 -316 163 0 -1 -3 -57 -6 -123 -3 -66 -7 -122 -9
-124 -2 -2 -4 188 -4 422 0 388 1 427 16 427 9 0 49 -18 88 -39z m1578 -55
c36 -85 31 -112 -13 -70 -42 39 -55 64 -39 74 10 6 7 12 -8 25 -24 21 -18 47
11 43 15 -2 28 -22 49 -72z m-4942 34 c0 -5 -4 -10 -10 -10 -5 0 -10 5 -10 10
0 6 5 10 10 10 6 0 10 -4 10 -10z m1775 -1 c10 -15 -1 -23 -20 -15 -9 3 -13
10 -10 16 8 13 22 13 30 -1z m2065 -14 c0 -15 -26 -32 -36 -23 -2 3 -2 13 2
22 8 20 34 21 34 1z m-3000 -29 c0 -16 -14 -36 -26 -36 -14 0 -19 22 -7 33 7
8 33 10 33 3z m2940 -19 c0 -2 -13 -16 -30 -32 -22 -21 -30 -25 -30 -13 0 20
27 48 46 48 8 0 14 -1 14 -3z m-1050 -27 c0 -19 -20 -27 -33 -13 -8 7 11 33
24 33 5 0 9 -9 9 -20z m1939 -37 c7 -16 24 -59 38 -97 25 -69 23 -85 -13 -86
-16 0 -67 166 -59 191 9 26 20 24 34 -8z m271 -21 c0 -15 -2 -15 -10 -2 -13
20 -13 33 0 25 6 -3 10 -14 10 -23z m946 17 c11 -18 -13 -34 -31 -19 -8 7 -15
16 -15 21 0 13 38 11 46 -2z m-7429 -86 c6 -17 -34 -36 -53 -25 -14 8 -13 11
7 26 25 17 40 17 46 -1z m7238 -21 c-6 -7 -35 18 -35 31 0 5 9 2 20 -8 11 -10
18 -20 15 -23z m-5338 2 c-3 -4 -14 -3 -24 0 -15 6 -15 8 -3 16 16 10 39 -4
27 -16z m1551 4 c-3 -7 -11 -13 -18 -13 -7 0 -15 6 -17 13 -3 7 4 12 17 12 13
0 20 -5 18 -12z m2322 -3 c0 -8 -7 -15 -15 -15 -16 0 -20 12 -8 23 11 12 23 8
23 -8z m2640 0 c0 -8 -6 -15 -14 -15 -17 0 -28 14 -19 24 12 12 33 6 33 -9z
m-2730 -5 c0 -5 -9 -10 -21 -10 -11 0 -17 5 -14 10 3 6 13 10 21 10 8 0 14 -4
14 -10z m2166 -128 c-8 -7 -25 8 -37 31 -11 21 -10 21 15 -2 14 -14 24 -26 22
-29z m320 27 c7 -12 -15 -31 -28 -23 -4 3 -8 12 -8 20 0 17 26 19 36 3z
m-3806 -14 c0 -8 -6 -15 -14 -15 -17 0 -28 14 -19 24 12 12 33 6 33 -9z m2537
-131 c23 -76 42 -152 42 -167 1 -16 6 -37 11 -47 15 -27 -10 -17 -31 13 -19
25 -89 282 -89 323 0 59 27 10 67 -122z m-6144 102 c7 -17 -11 -36 -34 -36
-21 0 -43 26 -34 40 9 15 62 12 68 -4z m1675 -43 c2 -8 -5 -13 -17 -13 -21 0
-35 13 -24 24 10 10 36 3 41 -11z m342 -13 c0 -5 -5 -10 -11 -10 -5 0 -7 5 -4
10 3 6 8 10 11 10 2 0 4 -4 4 -10z m228 -12 c4 -20 -36 -34 -52 -18 -8 8 -6
15 9 26 23 17 39 14 43 -8z m2992 7 c0 -8 -9 -15 -20 -15 -11 0 -20 7 -20 15
0 8 9 15 20 15 11 0 20 -7 20 -15z m1455 -35 c10 -11 16 -20 13 -20 -3 0 -13
9 -23 20 -10 11 -16 20 -13 20 3 0 13 -9 23 -20z m75 -56 c0 -2 -9 0 -20 6
-11 6 -20 13 -20 16 0 2 9 0 20 -6 11 -6 20 -13 20 -16z m320 -4 c0 -5 -4 -10
-10 -10 -5 0 -10 5 -10 10 0 6 5 10 10 10 6 0 10 -4 10 -10z m-327 -59 c-8
-10 -35 28 -28 39 5 8 11 4 19 -12 7 -12 11 -25 9 -27z m-553 19 c0 -5 -4 -10
-10 -10 -5 0 -10 5 -10 10 0 6 5 10 10 10 6 0 10 -4 10 -10z m-6212 -12 c-6
-18 -28 -21 -28 -4 0 9 7 16 16 16 9 0 14 -5 12 -12z m8221 -65 c-18 -32 -43
-77 -57 -101 -26 -45 -124 -129 -131 -111 -2 6 17 32 42 57 25 26 52 63 62 82
33 67 80 130 98 130 16 0 15 -7 -14 -57z m-2249 37 c0 -5 -7 -10 -15 -10 -8 0
-15 5 -15 10 0 6 7 10 15 10 8 0 15 -4 15 -10z m-4306 -39 c9 -14 -22 -34 -40
-27 -13 5 -14 9 -4 21 14 17 36 20 44 6z m-2360 -80 c26 -51 52 -83 103 -127
79 -69 83 -73 76 -91 -9 -24 -30 -13 -100 55 -45 43 -79 87 -95 122 -56 118
-41 155 16 41z m1459 45 c3 -7 0 -19 -6 -25 -14 -14 -40 -15 -32 -1 3 6 0 10
-7 10 -8 1 -6 6 6 15 25 19 32 19 39 1z m-1743 -191 c58 -86 112 -165 119
-176 14 -19 13 -21 -4 -18 -17 4 -245 329 -245 350 0 26 37 -18 130 -156z
m9821 139 c10 -13 10 -17 -2 -25 -8 -5 -20 -7 -27 -4 -8 3 -18 5 -23 5 -5 0
-9 9 -9 20 0 25 41 28 61 4z m-1304 -66 c35 -28 63 -52 63 -54 0 -7 -131 85
-155 109 -20 19 -20 19 5 7 13 -7 52 -35 87 -62z m-3537 52 c0 -5 -7 -10 -15
-10 -8 0 -15 5 -15 10 0 6 7 10 15 10 8 0 15 -4 15 -10z m-3390 -29 c0 -5 -7
-11 -15 -15 -15 -5 -20 5 -8 17 9 10 23 9 23 -2z m-200 -21 c0 -5 -7 -10 -15
-10 -8 0 -15 5 -15 10 0 6 7 10 15 10 8 0 15 -4 15 -10z m-695 -29 c7 -12 -12
-24 -25 -16 -11 7 -4 25 10 25 5 0 11 -4 15 -9z m7040 -41 c3 -6 -1 -13 -10
-16 -19 -8 -30 0 -20 15 8 14 22 14 30 1z m941 -58 c-5 -4 -86 58 -86 65 0 2
20 -10 45 -28 25 -18 43 -34 41 -37z m-1222 16 c15 -10 2 -20 -17 -12 -18 7
-30 32 -21 46 4 6 11 3 17 -8 6 -11 15 -22 21 -26z m-7744 -22 c0 -9 -7 -12
-21 -9 -16 4 -17 8 -7 14 19 13 28 11 28 -5z m1610 -86 c0 -5 -4 -10 -10 -10
-5 0 -10 5 -10 10 0 6 5 10 10 10 6 0 10 -4 10 -10z m6145 0 c3 -5 -1 -10 -9
-10 -9 0 -16 5 -16 10 0 6 4 10 9 10 6 0 13 -4 16 -10z m-3329 -45 c-20 -15
-36 -19 -36 -10 0 5 38 23 50 24 3 0 -4 -6 -14 -14z m-3441 -16 c0 -7 -8 -15
-17 -17 -18 -3 -25 18 -11 32 10 10 28 1 28 -15z m9165 6 c14 -17 7 -31 -19
-38 -27 -7 -56 16 -48 37 8 20 50 21 67 1z m-5770 -9 c0 -6 -82 -53 -195 -111
-55 -29 -131 -69 -170 -90 -38 -20 -153 -81 -255 -135 -102 -54 -230 -123
-285 -153 -55 -31 -102 -53 -105 -51 -6 6 -4 7 155 98 66 37 178 97 249 133
71 36 147 76 170 91 36 23 424 222 433 222 1 0 3 -2 3 -4z m-2343 -22 c10 -26
-28 -43 -56 -25 -12 8 -12 12 -2 25 17 21 50 20 58 0z m-971 -51 c-10 -10 -19
5 -10 18 6 11 8 11 12 0 2 -7 1 -15 -2 -18z m3478 -8 c-55 -39 -418 -226 -476
-244 -50 -16 -62 -36 -17 -26 35 7 54 16 281 134 137 71 168 82 168 59 0 -6
18 -28 40 -48 36 -33 41 -43 43 -88 2 -54 6 -49 -88 -107 -46 -29 -12 -29 40
-1 25 14 50 26 55 26 21 0 9 -19 -20 -32 -31 -13 -44 -33 -34 -49 9 -15 37
-10 71 11 53 32 235 126 273 140 19 7 47 22 63 32 15 11 27 16 27 11 -1 -15
-45 -58 -84 -82 -31 -20 -40 -21 -47 -10 -8 14 -10 12 -13 -13 0 -6 -7 -13
-14 -16 -7 -2 -10 2 -6 12 5 12 -2 11 -33 -5 -126 -66 -177 -95 -179 -104 -2
-5 9 -20 24 -31 l28 -22 147 74 c85 42 160 74 175 73 18 -1 21 -3 9 -6 -10 -3
-16 -11 -13 -18 3 -8 0 -15 -6 -17 -15 -5 -19 -41 -6 -49 6 -4 -1 -13 -18 -23
l-29 -16 30 6 c17 4 39 12 51 19 13 8 26 10 35 4 8 -5 10 -9 4 -9 -22 -1 22
-20 45 -20 14 0 41 -9 60 -20 19 -11 50 -27 69 -36 32 -14 35 -14 57 7 13 12
24 25 24 29 0 4 -34 26 -75 49 -42 24 -78 47 -80 52 -3 4 32 -13 77 -38 46
-25 88 -46 93 -46 6 0 33 16 61 36 41 30 141 74 228 101 14 5 -2 17 -64 47
-45 22 -79 43 -76 46 3 3 41 -13 85 -35 l80 -41 148 5 c170 7 298 -9 410 -51
181 -68 322 -194 393 -350 36 -79 48 -140 60 -314 9 -133 24 -218 40 -231 28
-22 67 -830 41 -830 -5 0 -17 -7 -25 -16 -12 -12 -16 -37 -16 -107 0 -51 -5
-155 -12 -233 l-12 -141 -37 -26 c-44 -32 -55 -34 -32 -8 9 11 20 18 25 15 4
-3 8 2 8 10 0 9 5 16 10 16 6 0 10 8 10 17 0 14 -3 13 -23 -5 -13 -12 -79 -54
-148 -93 -68 -39 -150 -89 -181 -110 -32 -21 -60 -39 -62 -39 -2 0 -39 -20
-80 -45 -42 -25 -80 -45 -84 -45 -4 0 -24 -11 -44 -25 l-36 -24 6 127 c5 129
-12 945 -28 1330 -8 184 -13 220 -32 269 -25 63 -71 103 -118 103 -39 0 -120
-75 -152 -142 -14 -29 -45 -116 -68 -193 -23 -77 -48 -157 -56 -178 -20 -53
-17 -58 10 -15 17 29 25 35 34 26 9 -9 12 -7 13 8 0 13 4 10 9 -10 5 -16 7
-33 4 -38 -3 -4 -2 -13 2 -20 5 -8 10 -6 16 8 5 12 6 6 2 -16 -9 -51 -40 -138
-56 -154 -107 -113 -138 -150 -138 -161 0 -7 -3 -15 -8 -17 -4 -1 -29 -32 -56
-68 -48 -65 -165 -199 -241 -275 -22 -22 -46 -53 -54 -67 -8 -15 -18 -25 -23
-22 -4 3 -8 -3 -8 -13 0 -10 -9 -29 -18 -41 l-18 -24 -17 25 c-17 27 -14 37
14 37 12 0 16 5 13 14 -3 8 -1 17 5 21 6 3 11 12 11 18 0 7 -4 6 -10 -3 -16
-25 -22 -4 -29 95 l-6 95 -214 203 c-118 111 -229 224 -248 250 -46 69 -82
190 -94 321 -12 141 -22 175 -59 214 -23 25 -30 41 -30 72 0 46 -21 62 -73 56
-77 -10 -144 -77 -173 -173 -15 -49 -16 -92 -29 -1089 l-5 -392 218 -122 c119
-68 298 -168 396 -224 142 -80 180 -106 183 -124 l3 -23 -26 25 c-15 13 -38
30 -53 37 -14 7 -37 21 -51 30 -14 9 -80 45 -147 79 -69 35 -120 67 -116 73 3
6 1 7 -5 3 -7 -4 -37 9 -67 29 -30 20 -60 38 -67 39 -20 3 -114 56 -185 104
-35 23 -65 42 -68 42 -11 0 -4 -67 10 -87 19 -27 167 -124 253 -167 81 -39
212 -122 212 -134 0 -5 26 -26 57 -48 31 -21 68 -50 81 -64 l24 -25 -7 25 c-6
20 -5 23 5 13 9 -9 14 -58 15 -170 2 -87 7 -178 11 -203 9 -42 11 -45 38 -42
23 3 27 0 22 -13 -3 -9 -7 -107 -7 -218 -1 -111 -4 -190 -6 -174 -2 15 -9 25
-14 22 -5 -4 -10 46 -11 122 l-1 128 -8 -140 c-5 -77 -13 -259 -18 -405 -5
-146 -10 -266 -10 -267 -1 -2 -5 -3 -11 -3 -6 0 -10 76 -10 208 l0 207 -82 46
c-75 41 -1160 645 -1468 816 -69 39 -298 166 -510 283 -212 117 -414 229 -450
249 l-65 37 3 99 c7 211 31 698 36 702 2 2 44 -18 92 -45 197 -109 393 -212
403 -212 7 0 11 37 11 104 0 56 4 159 10 227 5 68 12 182 14 252 2 71 6 131 9
134 4 3 17 3 31 -1 22 -5 24 -10 21 -54 -2 -26 -7 -158 -10 -293 -4 -195 -2
-249 8 -257 8 -7 14 -40 16 -84 6 -155 26 -295 45 -315 6 -6 67 -40 136 -76
69 -35 222 -117 340 -182 118 -65 242 -132 275 -150 109 -57 480 -257 490
-265 21 -16 355 -196 459 -248 86 -43 110 -51 117 -41 5 8 9 9 9 3 0 -6 7 -11
15 -11 8 0 15 9 15 19 0 10 -6 17 -12 15 -9 -1 -12 8 -10 26 2 16 -5 38 -18
54 -19 25 -20 25 -20 4 0 -12 4 -19 10 -16 6 3 10 -1 10 -10 0 -9 -4 -13 -10
-10 -5 3 -11 -2 -11 -12 -1 -10 -2 -22 -4 -28 -1 -5 -3 -14 -4 -20 -1 -5 -7
-3 -14 6 -7 9 -46 35 -87 58 -140 79 -113 81 38 3 l42 -22 0 34 c0 28 -8 41
-46 75 -25 22 -73 52 -107 68 -34 15 -110 52 -170 81 -60 29 -113 50 -120 46
-6 -4 -9 -4 -5 1 4 4 -36 34 -90 67 -92 56 -142 98 -142 119 0 16 14 10 84
-32 37 -22 69 -39 72 -37 2 2 -1 31 -6 64 -6 32 -10 76 -10 96 0 28 -6 41 -22
51 -13 8 -133 78 -268 157 -135 78 -264 156 -288 171 -46 31 -52 33 -52 22 0
-5 20 -21 45 -36 25 -16 45 -31 45 -33 0 -7 -40 16 -80 45 -19 14 -36 26 -37
26 -2 1 -8 37 -14 81 -8 59 -8 208 0 589 19 801 27 993 46 1045 26 72 89 170
152 234 32 33 57 63 56 68 -2 4 0 7 5 7 20 -3 32 2 26 13 -4 7 -3 8 4 4 7 -4
21 1 32 12 26 24 108 56 200 77 44 10 110 35 160 62 179 97 533 273 548 273 8
0 -7 -16 -34 -35z m3616 26 c0 -14 -18 -23 -31 -15 -8 4 -7 9 2 15 18 11 29
11 29 0z m-8049 -28 c13 -16 12 -17 -3 -4 -10 7 -18 15 -18 17 0 8 8 3 21 -13z
m9497 -109 c24 -69 41 -128 38 -131 -12 -12 -95 200 -96 245 0 38 20 -2 58
-114z m-5298 76 c0 -5 -5 -10 -11 -10 -5 0 -7 5 -4 10 3 6 8 10 11 10 2 0 4
-4 4 -10z m4549 -72 c6 -27 25 -138 41 -246 17 -108 37 -224 45 -256 9 -32 13
-61 11 -64 -3 -2 -14 10 -25 28 -21 35 -23 46 -70 375 -16 116 -32 219 -36
230 -6 19 -6 19 9 1 8 -10 20 -40 25 -68z m-3474 37 l20 -16 -20 10 c-11 5
-29 17 -40 26 l-20 16 20 -10 c11 -5 29 -17 40 -26z m3385 15 c0 -5 -4 -10
-10 -10 -5 0 -10 5 -10 10 0 6 5 10 10 10 6 0 10 -4 10 -10z m-4510 -4 c0 -9
-309 -176 -325 -176 -23 0 116 82 255 151 54 27 70 33 70 25z m3888 -53 c19
-85 22 -113 12 -113 -11 0 -29 58 -37 124 -8 63 11 55 25 -11z m357 33 c22
-33 37 -88 23 -84 -14 5 -59 89 -52 100 8 12 12 10 29 -16z m-2995 -56 c47
-28 82 -50 77 -50 -9 0 -159 79 -171 91 -24 22 15 5 94 -41z m-183 8 c-3 -8
-6 -5 -6 6 -1 11 2 17 5 13 3 -3 4 -12 1 -19z m-5276 -25 c-12 -20 -14 -14 -5
12 4 9 9 14 11 11 3 -2 0 -13 -6 -23z m5262 -33 c14 -23 15 -30 5 -30 -19 0
-38 21 -38 42 0 27 13 22 33 -12z m-418 1 c3 -5 1 -12 -5 -16 -5 -3 -10 1 -10
9 0 18 6 21 15 7z m4653 -59 c3 -9 -2 -13 -14 -10 -9 1 -19 9 -22 16 -3 9 2
13 14 10 9 -1 19 -9 22 -16z m-8178 -8 c0 -8 -5 -12 -10 -9 -6 4 -8 11 -5 16
9 14 15 11 15 -7z m378 -4 c7 -12 10 -25 7 -30 -8 -13 -35 -13 -35 1 0 5 5 7
10 4 6 -3 10 1 10 10 0 12 -6 15 -20 10 -19 -6 -27 5 -13 18 12 13 28 7 41
-13z m2172 15 c0 -2 -13 -11 -30 -20 -38 -19 -40 -11 -2 9 31 17 32 18 32 11z
m790 -5 c13 -8 13 -10 -2 -10 -9 0 -20 5 -23 10 -8 13 5 13 25 0z m-1140 -25
c0 -8 -7 -15 -15 -15 -8 0 -15 -5 -15 -11 0 -5 -4 -8 -10 -4 -5 3 -2 14 8 25
20 24 32 26 32 5z m1060 -25 c0 -5 -4 -10 -10 -10 -5 0 -10 5 -10 10 0 6 5 10
10 10 6 0 10 -4 10 -10z m470 -40 c8 -5 11 -10 5 -10 -5 0 -17 5 -25 10 -8 5
-10 10 -5 10 6 0 17 -5 25 -10z m4394 -133 c46 -82 128 -287 123 -307 -4 -14
-32 42 -141 274 -40 86 -47 114 -25 100 5 -3 24 -33 43 -67z m-5919 37 c-31
-24 -138 -77 -130 -64 6 9 133 79 145 79 3 0 -4 -7 -15 -15z m-3405 -19 c0
-12 -24 -55 -31 -55 -16 0 -18 18 -3 38 13 19 34 30 34 17z m8340 -20 c0 -16
-27 -32 -37 -22 -3 4 -3 13 0 22 8 20 37 20 37 0z m307 -11 c-9 -9 -28 6 -21
18 4 6 10 6 17 -1 6 -6 8 -13 4 -17z m-8346 -2 c-5 -10 -59 -101 -120 -202
-109 -180 -131 -227 -131 -282 0 -31 -17 -38 -27 -11 -11 28 16 104 69 192 61
101 208 321 214 321 3 0 0 -8 -5 -18z m2874 9 c-6 -5 -55 -33 -110 -62 -142
-74 -185 -105 -185 -134 0 -13 -4 -26 -10 -30 -5 -3 -7 8 -5 27 3 22 15 43 39
64 58 50 317 180 271 135z m6606 -78 c35 -78 89 -234 88 -254 0 -8 -11 15 -24
51 -12 36 -41 107 -64 159 -22 52 -41 98 -41 103 0 21 13 2 41 -59z m-8581
-13 c0 -5 -4 -10 -10 -10 -5 0 -10 5 -10 10 0 6 5 10 10 10 6 0 10 -4 10 -10z
m1950 5 c0 -2 -10 -9 -22 -15 -22 -11 -22 -10 -4 4 21 17 26 19 26 11z m5252
-130 c0 -5 -5 -11 -11 -13 -6 -2 -11 4 -11 13 0 9 5 15 11 13 6 -2 11 -8 11
-13z m596 -149 c83 -65 152 -120 152 -123 0 -7 -22 8 -92 64 -38 29 -101 79
-140 110 -72 56 -122 100 -88 77 8 -6 84 -63 168 -128z m-8438 110 c0 -2 -28
-23 -62 -46 -34 -24 -67 -47 -72 -52 -41 -34 -139 -98 -144 -94 -3 3 -3 7 -1
9 2 2 22 16 43 32 60 45 220 153 229 154 4 1 7 -1 7 -3z m7356 -37 c10 -17
-13 -36 -27 -22 -12 12 -4 33 11 33 5 0 12 -5 16 -11z m-7136 -17 c0 -13 -12
-22 -22 -16 -10 6 -1 24 13 24 5 0 9 -4 9 -8z m9097 -64 c-3 -8 -6 -5 -6 6 -1
11 2 17 5 13 3 -3 4 -12 1 -19z m-2098 -14 c-14 -18 -24 -11 -15 11 3 9 11 13
16 10 8 -5 7 -11 -1 -21z m569 -46 c-3 -7 -11 -13 -18 -13 -7 0 -15 6 -17 13
-3 7 4 12 17 12 13 0 20 -5 18 -12z m1539 -10 c-3 -8 -6 -5 -6 6 -1 11 2 17 5
13 3 -3 4 -12 1 -19z m-9217 -18 c0 -5 -5 -10 -11 -10 -5 0 -7 5 -4 10 3 6 8
10 11 10 2 0 4 -4 4 -10z m9210 -30 c0 -5 -4 -10 -10 -10 -5 0 -10 5 -10 10 0
6 5 10 10 10 6 0 10 -4 10 -10z m-1622 -170 c-1 -28 -2 -25 -8 15 -5 28 -8 66
-8 85 1 28 2 25 8 -15 5 -27 8 -66 8 -85z m207 110 c3 -5 1 -10 -4 -10 -6 0
-11 5 -11 10 0 6 2 10 4 10 3 0 8 -4 11 -10z m-6855 -65 c-7 -9 -15 -13 -18
-10 -3 2 1 11 8 20 7 9 15 13 18 10 3 -2 -1 -11 -8 -20z m5008 3 c-1 -7 1 -33
5 -58 16 -107 47 -885 36 -920 l-7 -25 -1 25 c-2 41 -18 9 -30 -59 -10 -62
-16 -79 -25 -70 -5 5 -36 866 -36 1002 0 96 4 109 28 85 9 -9 12 -7 12 10 0
12 5 22 10 22 6 0 10 -6 8 -12z m152 -150 c0 -116 8 -325 20 -588 15 -309 26
-740 19 -751 -10 -16 -27 61 -38 166 -12 113 -28 454 -37 813 -5 180 -4 242 4
242 8 0 12 31 12 100 0 60 4 100 10 100 6 0 10 -34 10 -82z m-6330 62 c0 -5
-4 -10 -10 -10 -5 0 -10 5 -10 10 0 6 5 10 10 10 6 0 10 -4 10 -10z m6391 -61
c6 -29 39 -633 43 -782 1 -46 -1 -52 -19 -52 -18 0 -21 9 -27 95 -4 52 -8 203
-10 335 -2 132 -6 242 -10 245 -10 7 -18 138 -11 173 7 37 26 29 34 -14z
m-6047 22 c9 -13 -19 -32 -38 -25 -17 6 -20 16 -9 27 9 10 41 9 47 -2z m7151
-1 c3 -5 1 -10 -4 -10 -6 0 -11 5 -11 10 0 6 2 10 4 10 3 0 8 -4 11 -10z m744
-19 c9 -6 10 -10 2 -16 -15 -8 -41 1 -41 15 0 12 20 13 39 1z m-1729 -28 c-1
-18 -18 -35 -24 -24 -4 6 -4 16 -1 21 7 12 25 13 25 3z m940 -43 c0 -5 -4 -10
-10 -10 -5 0 -10 5 -10 10 0 6 5 10 10 10 6 0 10 -4 10 -10z m-7775 -29 c3 -5
1 -13 -5 -16 -15 -9 -43 3 -35 15 8 13 32 13 40 1z m2634 -15 c10 -12 8 -13
-8 -9 -12 3 -21 9 -21 14 0 14 16 11 29 -5z m4185 -78 c3 -51 8 -167 11 -258
3 -91 8 -219 12 -285 6 -118 5 -121 -15 -121 -17 0 -22 8 -27 41 -8 65 -25
461 -25 593 0 113 1 122 19 122 17 0 20 -10 25 -92z m100 84 c3 -5 8 -39 12
-76 6 -61 5 -69 -16 -91 -13 -13 -27 -22 -31 -19 -5 3 -9 48 -9 100 0 86 2 94
19 94 11 0 22 -4 25 -8z m-4386 -21 c3 -8 0 -11 -6 -7 -10 6 -19 -41 -25 -149
-2 -27 -4 1 -5 63 -2 101 0 113 15 110 9 -2 18 -9 21 -17z m-1201 -17 c-9 -9
-28 6 -21 18 4 6 10 6 17 -1 6 -6 8 -13 4 -17z m1292 -57 c14 -128 -4 -761
-20 -707 -6 23 -7 22 -8 -10 -1 -31 -3 -33 -13 -15 -8 14 -8 94 1 315 19 470
26 547 40 417z m5554 9 c7 -18 -1 -26 -29 -26 -25 0 -39 14 -29 30 9 15 52 12
58 -4z m-1171 -121 c8 -79 28 -517 28 -628 0 -48 2 -87 5 -87 3 0 22 11 43 23
89 57 511 281 517 276 4 -4 20 -250 35 -548 6 -122 15 -200 22 -209 10 -11 9
-17 -4 -26 -9 -7 -20 -25 -24 -42 -3 -16 -21 -83 -39 -149 -19 -66 -38 -139
-44 -162 -11 -40 -16 -45 -109 -94 -53 -28 -140 -75 -192 -104 -118 -65 -145
-80 -405 -223 -115 -63 -289 -158 -385 -210 -320 -173 -1300 -714 -1367 -754
l-32 -19 0 493 -1 493 118 62 c64 35 205 111 312 169 107 58 238 129 290 156
52 28 124 66 159 86 112 61 173 94 281 150 58 30 173 91 255 135 83 44 222
118 309 164 87 46 177 96 200 111 l41 28 3 74 2 75 -35 -37 c-41 -44 -45 -46
-45 -15 0 12 -5 29 -10 37 -8 12 -10 10 -10 -10 0 -20 -2 -22 -10 -10 -5 8
-10 62 -10 119 0 87 2 102 15 97 8 -3 26 5 40 17 l26 22 -11 225 c-5 124 -12
260 -14 303 -4 75 -3 78 17 75 19 -3 23 -12 29 -63z m-6852 5 c0 -5 -5 -10
-11 -10 -5 0 -7 5 -4 10 3 6 8 10 11 10 2 0 4 -4 4 -10z m7678 -71 c-2 -6 -8
-10 -13 -10 -5 0 -11 4 -13 10 -2 6 4 11 13 11 9 0 15 -5 13 -11z m1437 -53
c16 -12 17 -16 6 -30 -17 -20 -30 -20 -56 0 -20 15 -20 15 -1 30 24 17 28 17
51 0z m-7690 -46 c3 -5 2 -10 -4 -10 -5 0 -13 5 -16 10 -3 6 -2 10 4 10 5 0
13 -4 16 -10z m5765 -34 c0 -11 -19 -15 -25 -6 -3 5 1 10 9 10 9 0 16 -2 16
-4z m-1990 -122 c0 -8 -5 -14 -10 -14 -6 0 -19 -14 -29 -31 -11 -17 -37 -50
-58 -73 -21 -22 -47 -54 -57 -71 -11 -16 -42 -50 -69 -75 -28 -25 -69 -63 -92
-85 -45 -43 -313 -297 -322 -305 -14 -12 18 39 47 75 50 63 365 400 474 507
93 92 116 107 116 72z m2490 16 c0 -5 -5 -10 -11 -10 -5 0 -7 5 -4 10 3 6 8
10 11 10 2 0 4 -4 4 -10z m-6915 -40 c3 -5 -3 -10 -15 -10 -12 0 -18 5 -15 10
3 6 10 10 15 10 5 0 12 -4 15 -10z m6429 -6 c20 -8 21 -40 2 -47 -21 -8 -50
17 -43 37 7 17 16 20 41 10z m2157 -14 c10 -6 19 -17 19 -24 0 -19 -28 -28
-51 -16 -29 16 -24 41 9 49 2 1 12 -4 23 -9z m-5391 -85 c19 -19 32 -35 29
-35 -3 0 -20 16 -39 35 -19 19 -32 35 -29 35 3 0 20 -16 39 -35z m-3795 -5 c7
-11 -9 -11 -45 0 -24 8 -24 8 7 9 17 1 35 -3 38 -9z m495 0 c0 -5 -4 -10 -10
-10 -5 0 -10 5 -10 10 0 6 5 10 10 10 6 0 10 -4 10 -10z m7758 -13 c2 -11 -3
-17 -17 -17 -23 0 -35 15 -26 31 10 15 39 6 43 -14z m-1293 -42 c-46 -40 -86
-60 -70 -34 10 14 98 78 110 79 5 0 -13 -20 -40 -45z m873 8 c5 -17 -26 -29
-40 -15 -6 6 -7 15 -3 22 9 14 37 9 43 -7z m-3958 -28 c19 -19 32 -35 29 -35
-3 0 -20 16 -39 35 -19 19 -32 35 -29 35 3 0 20 -16 39 -35z m1020 -80 c-19
-20 -59 -55 -89 -78 -29 -23 -76 -61 -103 -84 -48 -43 -71 -56 -49 -29 7 8 62
57 123 108 61 51 116 98 122 105 6 7 15 12 20 13 6 0 -5 -16 -24 -35z m-1410
-50 c10 -23 20 -91 29 -185 l6 -65 70 -33 c39 -19 135 -71 215 -116 80 -46
185 -105 234 -132 82 -46 107 -67 93 -80 -3 -4 -16 4 -29 16 -13 12 -57 40
-98 62 -153 83 -182 98 -225 123 -25 13 -45 21 -45 17 0 -4 -5 0 -10 8 -5 8
-20 16 -34 17 -13 1 -47 13 -74 27 -42 21 -52 23 -62 11 -9 -11 3 -21 62 -56
40 -23 132 -77 203 -119 72 -42 168 -99 214 -127 59 -35 85 -56 86 -70 1 -18
-2 -17 -44 11 -25 17 -47 34 -49 39 -2 4 -8 7 -12 7 -5 0 -32 14 -60 30 -28
17 -56 30 -63 30 -7 0 -28 11 -47 23 -35 24 -110 67 -205 117 -27 15 -83 48
-124 74 l-73 47 7 177 c7 165 13 216 23 182 2 -8 7 -24 12 -35z m1717 19 l32
-5 3 -116 c4 -136 14 -121 -151 -222 -56 -35 -100 -65 -97 -68 7 -7 -33 -43
-47 -43 -6 0 -7 -3 -4 -6 7 -7 -30 -44 -44 -44 -5 0 -6 -6 -4 -12 4 -12 -146
-113 -166 -113 -5 0 -15 -9 -23 -20 -14 -18 -15 -3 -16 156 0 97 -3 210 -6
252 l-7 76 74 46 c41 26 103 66 139 89 l64 42 111 -3 c60 -2 124 -6 142 -9z
m4113 6 c0 -5 -7 -10 -15 -10 -8 0 -15 5 -15 10 0 6 7 10 15 10 8 0 15 -4 15
-10z m-9820 -40 c0 -5 -4 -10 -10 -10 -5 0 -10 5 -10 10 0 6 5 10 10 10 6 0
10 -4 10 -10z m-29 -37 c-5 -10 -17 -27 -25 -38 -14 -17 -14 -14 1 18 9 20 21
37 25 37 5 0 4 -8 -1 -17z m6645 -78 c-2 -6 2 -19 10 -30 8 -10 10 -23 5 -29
-7 -10 -14 -49 -26 -161 -4 -31 -13 -48 -46 -76 -22 -20 -57 -45 -77 -55 -21
-11 -41 -25 -45 -31 -4 -7 -17 -13 -28 -13 -31 0 -14 17 65 67 120 77 111 60
109 229 -3 146 -3 147 18 128 11 -10 18 -23 15 -29z m1658 20 c-18 -27 -44
-45 -66 -45 -13 1 61 70 75 70 4 0 0 -11 -9 -25z m68 -16 c-18 -16 -32 -27
-32 -23 0 12 53 64 59 58 3 -3 -9 -18 -27 -35z m696 8 c4 -19 -15 -22 -38 -7
-13 9 -13 11 0 20 19 13 34 8 38 -13z m-7957 -38 c8 -16 8 -55 -2 -158 -7 -75
-16 -147 -20 -161 -12 -40 -11 59 2 182 10 95 9 111 -5 133 -14 21 -14 25 -2
25 9 0 20 -10 27 -21z m-1127 -49 c-14 -14 -39 14 -29 31 5 8 12 6 23 -5 11
-11 13 -19 6 -26z m1396 15 c0 -19 -24 -29 -46 -21 -13 5 -14 9 -4 21 16 20
50 19 50 0z m86 -190 c-9 -92 -16 -173 -16 -181 0 -8 -5 -14 -11 -14 -8 0 -10
18 -5 58 3 31 11 115 16 186 10 123 20 172 28 134 2 -10 -4 -92 -12 -183z
m7219 125 c0 -19 -6 -26 -26 -28 -29 -3 -54 20 -45 44 4 10 16 14 38 12 28 -2
33 -7 33 -28z m-1505 0 c0 -5 -4 -10 -10 -10 -5 0 -10 5 -10 10 0 6 5 10 10
10 6 0 10 -4 10 -10z m1655 -20 c-14 -15 -17 -35 -16 -90 1 -47 -2 -70 -10
-70 -8 0 -10 23 -7 76 3 60 7 79 23 90 27 20 31 17 10 -6z m-3952 -32 c20 -16
26 -28 21 -41 -6 -17 -8 -17 -25 -1 -10 9 -16 21 -13 25 3 5 2 9 -3 9 -4 0
-16 12 -27 26 -18 25 -18 26 0 16 11 -6 32 -21 47 -34z m3474 -205 c-2 -32 -3
-6 -3 57 0 63 1 89 3 58 2 -32 2 -84 0 -115z m-1902 118 c-3 -5 2 -11 11 -13
9 -2 -20 -26 -73 -60 -130 -85 -169 -121 -204 -194 -18 -35 -33 -63 -35 -61
-2 1 1 22 7 46 22 97 78 166 169 208 30 14 57 29 60 34 3 4 12 9 20 11 8 2 21
11 28 21 14 18 28 24 17 8z m-2350 -122 c58 -34 105 -63 105 -65 0 -2 -33 12
-72 33 -40 20 -75 37 -78 38 -9 0 -75 55 -67 55 4 0 55 -27 112 -61z m2555 41
c-14 -11 -29 -24 -35 -28 -25 -19 -105 -60 -105 -53 0 4 10 13 23 20 12 6 47
27 77 45 63 39 76 44 40 16z m2113 14 c11 -12 -13 -44 -33 -44 -22 0 -34 15
-26 35 5 15 47 21 59 9z m-3173 -9 c0 -3 -58 -43 -128 -89 -71 -46 -154 -105
-185 -130 -53 -43 -57 -44 -57 -23 0 35 74 94 222 174 128 70 148 79 148 68z
m-5022 -44 c8 -5 12 -17 10 -27 -4 -24 -50 -31 -67 -10 -10 11 -8 17 11 30 26
18 28 19 46 7z m485 -281 c-14 -140 -27 -257 -29 -259 -14 -16 -14 29 0 181
24 251 38 350 46 341 5 -4 -3 -123 -17 -263z m5447 226 c0 -2 -7 -6 -15 -10
-8 -3 -15 -1 -15 4 0 6 7 10 15 10 8 0 15 -2 15 -4z m-354 -23 c-3 -10 -8 -30
-11 -45 -4 -15 -12 -25 -18 -22 -7 2 -30 -13 -52 -34 -22 -22 -67 -57 -101
-80 -33 -23 -68 -50 -79 -62 -10 -11 -26 -20 -36 -20 -10 0 -21 -4 -24 -10 -3
-5 -15 -10 -26 -10 -11 0 -17 -4 -14 -10 3 -5 2 -10 -3 -10 -5 0 -43 -19 -83
-43 -161 -94 -244 -140 -254 -139 -56 6 -70 32 -36 69 11 11 17 24 14 27 -3 3
7 16 23 28 33 27 330 188 345 188 5 0 19 -9 31 -20 26 -24 36 -17 83 55 28 45
42 56 101 80 38 16 83 39 99 51 36 28 48 30 41 7z m314 8 c0 -5 -16 -18 -35
-30 -41 -24 -47 -12 -7 18 30 22 42 26 42 12z m-3015 -61 c27 -53 30 -64 16
-55 -10 6 -36 52 -52 93 -16 41 10 13 36 -38z m1305 -7 c0 -48 -3 -64 -10 -53
-16 24 -11 120 6 120 2 0 4 -30 4 -67z m4319 58 c21 -13 5 -41 -23 -41 -28 0
-40 14 -32 35 6 17 34 19 55 6z m-3594 -11 c-3 -5 -12 -10 -18 -10 -7 0 -6 4
3 10 19 12 23 12 15 0z m3025 6 c0 -11 -19 -15 -25 -6 -3 5 1 10 9 10 9 0 16
-2 16 -4z m-4650 -10 c0 -2 -7 -6 -15 -10 -8 -3 -15 -1 -15 4 0 6 7 10 15 10
8 0 15 -2 15 -4z m207 -51 c-7 -7 -14 -12 -17 -11 -57 22 -93 64 -44 52 18 -5
24 -3 18 5 -4 6 7 2 24 -11 24 -18 28 -25 19 -35z m4300 -12 c-3 -10 -5 -2 -5
17 0 19 2 27 5 18 2 -10 2 -26 0 -35z m-2843 -48 c-45 -31 -457 -236 -463
-230 -11 11 28 34 244 141 191 95 276 129 219 89z m2853 -77 c-2 -18 -4 -6 -4
27 0 33 2 48 4 33 2 -15 2 -42 0 -60z m711 70 c18 -18 14 -36 -9 -43 -26 -8
-54 16 -46 39 7 19 38 21 55 4z m-4537 -68 c30 -16 49 -30 43 -30 -12 0 -104
49 -104 56 0 7 5 5 61 -26z m1099 2 c0 -4 -21 -18 -47 -31 -27 -12 -70 -36
-96 -53 -26 -17 -50 -28 -53 -25 -6 6 43 39 126 85 60 33 70 36 70 24z m-200
-31 c0 -10 -63 -49 -153 -93 -34 -17 -64 -34 -67 -37 -3 -4 -24 -15 -47 -25
-24 -11 -43 -24 -43 -30 0 -6 -5 -4 -10 4 -6 9 -6 19 1 25 10 10 298 162 312
164 4 0 7 -3 7 -8z m-712 -66 c39 -21 72 -45 72 -52 0 -10 -6 -8 -20 4 -10 10
-55 38 -100 62 -44 23 -80 44 -80 46 0 6 49 -17 128 -60z m1253 41 c-12 -13
-50 -38 -84 -56 -34 -18 -109 -58 -167 -90 -228 -125 -353 -190 -365 -190 -3
0 -5 6 -5 14 0 17 59 54 278 170 186 99 341 176 356 176 5 0 -1 -11 -13 -24z
m-2186 4 c3 -5 1 -10 -4 -10 -6 0 -11 5 -11 10 0 6 2 10 4 10 3 0 8 -4 11 -10z
m4582 -133 c-2 -23 -3 -1 -3 48 0 50 1 68 3 42 2 -26 2 -67 0 -90z m458 124
c7 -12 -12 -24 -25 -16 -11 7 -4 25 10 25 5 0 11 -4 15 -9z m-3760 -21 c-3 -5
-11 -10 -16 -10 -6 0 -7 5 -4 10 3 6 11 10 16 10 6 0 7 -4 4 -10z m-1177 -28
c6 -18 -15 -14 -22 4 -4 10 -1 14 6 12 6 -2 14 -10 16 -16z m-3478 -2 c0 -5
-7 -10 -15 -10 -8 0 -15 5 -15 10 0 6 7 10 15 10 8 0 15 -4 15 -10z m3515 -18
c-3 -3 -11 0 -18 7 -9 10 -8 11 6 5 10 -3 15 -9 12 -12z m-3135 -12 c0 -5 -5
-10 -11 -10 -5 0 -7 5 -4 10 3 6 8 10 11 10 2 0 4 -4 4 -10z m631 -135 c1 -86
-1 -100 -15 -103 -14 -3 -16 8 -16 81 0 174 27 193 31 22z m2849 -41 c0 -2 -9
0 -20 6 -11 6 -20 13 -20 16 0 2 9 0 20 -6 11 -6 20 -13 20 -16z m3495 -9
c-21 -18 -43 -31 -47 -29 -9 6 5 21 42 47 43 30 47 18 5 -18z m-7050 15 c3 -5
-1 -10 -9 -10 -9 0 -16 5 -16 10 0 6 4 10 9 10 6 0 13 -4 16 -10z m6915 -4 c0
-3 -66 -40 -147 -82 -155 -81 -278 -148 -328 -178 l-30 -18 22 20 c12 11 19
23 15 27 -4 5 -1 5 6 1 6 -4 12 -2 12 4 0 6 5 8 10 5 6 -3 10 -3 10 2 0 4 10
13 23 19 12 6 107 54 212 107 197 101 195 100 195 93z m-7308 -139 c70 -76 76
-86 76 -127 l1 -45 -35 40 c-66 76 -147 215 -125 215 4 0 42 -37 83 -83z m138
47 c0 -8 -4 -12 -10 -9 -5 3 -10 13 -10 21 0 8 5 12 10 9 6 -3 10 -13 10 -21z
m7810 -3 c0 -15 -60 -61 -78 -61 -12 1 -5 12 22 35 40 35 56 43 56 26z m-7220
-66 c19 -23 4 -47 -27 -43 -32 4 -39 20 -18 42 20 20 29 20 45 1z m8035 -114
c-6 -5 -21 -11 -35 -15 -21 -5 -20 -3 5 9 35 17 42 18 30 6z m-8375 -11 c8 -5
12 -12 9 -15 -8 -8 -39 5 -39 16 0 11 11 11 30 -1z m6368 -15 c-3 -3 -9 2 -12
12 -6 14 -5 15 5 6 7 -7 10 -15 7 -18z m-40 -20 c-3 -3 -9 2 -12 12 -6 14 -5
15 5 6 7 -7 10 -15 7 -18z m-2247 -38 c-1 -4 -1 -18 -1 -32 0 -14 -4 -25 -10
-25 -5 0 -10 16 -10 36 0 21 4 34 11 32 6 -2 10 -7 10 -11z m2019 -8 c0 -5 -4
-9 -10 -9 -5 0 -10 7 -10 16 0 8 5 12 10 9 6 -3 10 -10 10 -16z m-5462 -31
c-4 -28 -19 -32 -43 -13 -17 13 -18 16 -5 25 27 18 52 12 48 -12z m507 -3 c0
-22 -26 -28 -33 -7 -2 8 2 10 15 6 16 -6 16 -5 -2 10 l-20 17 20 -3 c12 -2 20
-11 20 -23z m4999 -16 c-6 -11 -24 -2 -24 11 0 5 7 7 15 4 8 -4 12 -10 9 -15z
m-39 1 c-3 -5 -11 -10 -16 -10 -6 0 -7 5 -4 10 3 6 11 10 16 10 6 0 7 -4 4
-10z m1985 5 c0 -2 -10 -9 -22 -15 -22 -11 -22 -10 -4 4 21 17 26 19 26 11z
m-2030 -30 c-15 -18 -7 -19 23 -4 21 10 21 10 3 -5 -11 -9 -27 -14 -35 -11 -9
2 -23 0 -31 -5 -13 -8 -13 -10 0 -10 10 0 7 -5 -8 -16 -12 -8 -31 -13 -41 -9
-11 3 -22 1 -26 -4 -4 -7 1 -8 11 -4 31 11 6 -14 -33 -35 -21 -11 -76 -41
-123 -66 -47 -25 -110 -58 -140 -73 -30 -16 -56 -31 -58 -35 -2 -5 -7 -8 -12
-8 -4 0 -38 -19 -76 -41 -78 -48 -113 -67 -244 -136 -52 -28 -142 -76 -200
-108 -162 -89 -540 -276 -540 -268 0 17 18 31 85 67 39 21 133 72 210 113 77
42 145 79 150 83 6 4 82 46 170 93 88 47 218 117 289 156 71 39 133 68 137 65
5 -3 8 0 7 6 -4 14 202 122 219 116 7 -3 12 -1 10 5 -1 6 57 41 128 79 147 77
142 75 125 55z m-5715 -55 c17 -11 26 -20 21 -20 -19 0 -76 24 -76 32 0 14 24
9 55 -12z m5774 -44 c17 -20 -13 -43 -34 -26 -12 10 -13 16 -4 26 6 8 15 14
19 14 4 0 13 -6 19 -14z m-2086 -10 c3 -11 -30 -32 -38 -25 -3 4 -3 14 1 23 7
17 33 19 37 2z m2767 -46 c0 -5 -4 -10 -10 -10 -5 0 -10 5 -10 10 0 6 5 10 10
10 6 0 10 -4 10 -10z m-95 -55 c-69 -44 -92 -54 -80 -35 7 12 126 80 140 80 6
0 -21 -20 -60 -45z m-1095 -101 c0 -8 -4 -12 -10 -9 -5 3 -10 10 -10 16 0 5 5
9 10 9 6 0 10 -7 10 -16z m-4730 -84 c0 -5 -4 -10 -10 -10 -5 0 -10 5 -10 10
0 6 5 10 10 10 6 0 10 -4 10 -10z m-645 -570 c3 -5 1 -10 -4 -10 -6 0 -11 5
-11 10 0 6 2 10 4 10 3 0 8 -4 11 -10z m7589 4 c14 -6 14 -9 -1 -34 -13 -23
-20 -27 -35 -19 -42 23 -10 71 36 53z m-2227 -86 c-3 -7 -5 -2 -5 12 0 14 2
19 5 13 2 -7 2 -19 0 -25z m478 -38 c0 -32 -42 -41 -62 -14 -17 24 2 46 36 42
20 -2 26 -9 26 -28z m-3527 8 c14 -14 -2 -48 -23 -48 -8 0 -14 3 -14 8 3 19
-2 33 -11 27 -11 -7 -14 8 -3 18 10 11 38 8 51 -5z m-1683 -24 c63 -30 70 -37
51 -53 -11 -9 -29 -7 -77 10 -35 12 -73 26 -83 32 -19 9 -19 10 -1 23 27 20
47 18 110 -12z m4111 -28 c15 -12 17 -18 8 -33 -6 -10 -21 -18 -34 -18 -13 0
-28 8 -34 18 -9 15 -7 21 8 33 11 8 23 14 26 14 3 0 15 -6 26 -14z m1924 -16
c0 -5 -4 -10 -10 -10 -5 0 -10 5 -10 10 0 6 5 10 10 10 6 0 10 -4 10 -10z
m-1725 -40 c3 -5 -1 -10 -9 -10 -9 0 -16 5 -16 10 0 6 4 10 9 10 6 0 13 -4 16
-10z m-1715 -30 c0 -5 -4 -10 -10 -10 -5 0 -10 5 -10 10 0 6 5 10 10 10 6 0
10 -4 10 -10z m-3076 -96 c9 -8 16 -22 16 -29 0 -20 -28 -45 -50 -45 -44 0
-58 48 -22 78 21 16 37 15 56 -4z m1886 -34 c0 -5 -4 -10 -10 -10 -5 0 -10 5
-10 10 0 6 5 10 10 10 6 0 10 -4 10 -10z m2087 -96 c15 -39 -58 -59 -81 -21
-16 26 27 62 55 46 11 -6 23 -17 26 -25z m2098 -64 c3 -5 1 -10 -4 -10 -6 0
-11 5 -11 10 0 6 2 10 4 10 3 0 8 -4 11 -10z m-4445 -50 c0 -11 -4 -20 -10
-20 -5 0 -14 9 -20 20 -9 17 -8 20 10 20 13 0 20 -7 20 -20z m-70 -5 c0 -9 -6
-12 -15 -9 -8 4 -15 10 -15 15 0 5 7 9 15 9 8 0 15 -7 15 -15z m204 -236 c25
-34 46 -71 46 -82 -1 -20 -4 -18 -31 13 -43 51 -83 130 -65 130 2 0 25 -27 50
-61z m-2954 -135 c0 -8 4 -13 9 -10 5 3 16 -5 25 -19 14 -21 14 -26 3 -31 -20
-7 -67 13 -67 30 0 8 -6 17 -12 19 -10 4 -9 8 2 16 22 15 40 13 40 -5z m223
-171 c42 -32 42 -48 3 -49 -33 -1 -78 39 -70 61 9 22 26 19 67 -12z m4866 -19
c9 -8 -13 -24 -34 -24 -26 0 -40 14 -30 30 5 8 52 4 64 -6z m-4003 -518 c28
-55 28 -81 -1 -94 -36 -17 -48 -15 -79 9 -20 16 -26 29 -26 59 0 71 74 89 106
26z"/>
<path d="M4596 6781 c-9 -10 -44 -31 -77 -46 -65 -29 -73 -43 -17 -27 47 13
118 59 118 77 0 19 -3 19 -24 -4z"/>
<path d="M5070 6571 c0 -5 41 -32 90 -61 74 -42 93 -50 105 -40 8 7 15 15 15
19 -1 7 -66 38 -107 51 -15 4 -45 15 -65 24 -21 9 -38 12 -38 7z"/>
<path d="M5027 6520 c-16 -19 -33 -66 -30 -85 2 -9 -52 -49 -107 -81 -12 -6
-16 -15 -10 -23 6 -11 17 -7 51 16 66 44 70 46 63 29 -3 -9 -10 -16 -15 -16
-4 0 -24 -13 -42 -30 -19 -16 -37 -26 -41 -22 -4 4 2 -18 15 -48 12 -30 41
-102 64 -159 22 -58 46 -106 51 -108 6 -2 20 23 33 54 57 143 135 312 165 354
9 13 16 27 16 30 0 10 -175 109 -192 109 -2 0 -11 -9 -21 -20z m91 -104 c42
-21 85 -56 69 -56 -3 0 -33 14 -66 31 -38 18 -70 28 -84 25 -12 -3 -16 -3 -9
0 6 3 10 10 6 15 -10 17 37 9 84 -15z"/>
<path d="M4790 6500 c-9 -6 -10 -10 -3 -10 6 0 15 5 18 10 8 12 4 12 -15 0z"/>
<path d="M4328 3973 c6 -3 12 -9 12 -14 0 -6 -5 -7 -12 -3 -7 4 -8 3 -4 -4 4
-6 13 -9 20 -6 8 3 17 0 21 -5 3 -6 11 -9 16 -6 5 3 7 0 4 -7 -3 -8 29 -33 87
-68 134 -79 179 -110 172 -121 -3 -5 -2 -9 3 -8 15 4 61 -19 66 -33 2 -7 8 -9
13 -4 12 11 -69 81 -131 112 -27 14 -53 31 -57 37 -4 7 -11 12 -15 12 -12 0
-101 54 -108 65 -4 6 2 7 12 4 10 -3 0 5 -22 19 -22 14 -52 27 -65 30 -14 2
-19 2 -12 0z"/>
<path d="M4400 3857 c21 -20 155 -93 147 -80 -7 11 -107 72 -142 86 -18 7 -18
6 -5 -6z"/>
<path d="M4580 3745 c13 -14 26 -25 28 -25 3 0 -5 11 -18 25 -13 14 -26 25
-28 25 -3 0 5 -11 18 -25z"/>
<path d="M1485 4610 c-3 -5 -1 -10 4 -10 6 0 11 5 11 10 0 6 -2 10 -4 10 -3 0
-8 -4 -11 -10z"/>
<path d="M6746 3151 c-4 -5 3 -7 14 -4 23 6 26 13 6 13 -8 0 -17 -4 -20 -9z"/>
<path d="M6576 3065 c-11 -8 -16 -15 -10 -15 5 0 18 7 28 15 11 8 16 15 10 15
-5 0 -18 -7 -28 -15z"/>
<path d="M3390 2160 c0 -5 5 -10 10 -10 6 0 10 5 10 10 0 6 -4 10 -10 10 -5 0
-10 -4 -10 -10z"/>
<path d="M9900 4410 c-162 -96 -270 -163 -270 -166 0 -10 20 -2 61 24 24 16
81 51 126 77 46 26 88 54 94 61 13 16 10 17 -11 4z"/>
</g>
</svg>
